<?xml version="1.0" encoding="UTF-8"?>
<svg version="1.1" viewBox="-178.3 -167.1 1e3 700" xmlns="http://www.w3.org/2000/svg"><path d="M614.2 91l-150-137.6-21.1 23L568.1 91H75.4l125-114.7-21.1-23L29.3 91h-.1v90.7c0 41 39.5 74.4 88 74.4h92.5c48.5 0 88-33.4 88-74.4v-59.6h48v59.6c0 41 39.5 74.4 88 74.4h92.5c48.5 0 88-33.4 88-74.4V91z" fill="#FC60A8"/><path d="m107.25 255.33c-13.491-1.2989-28.934-6.1962-39.432-12.505-18.524-11.132-30.187-25.359-35.96-43.868l-1.8201-5.8355-0.35996-102.17 74.543-68.385c40.998-37.612 74.772-68.385 75.053-68.385 0.28101 0 5.0331 4.9108 10.56 10.913 9.9455 10.8 10.037 10.927 8.8272 12.27-0.67211 0.74659-28.745 26.609-62.384 57.472l-61.162 56.115 123.29 0.16651c67.807 0.0916 178.82 0.0916 246.69 0l123.4-0.16651-124.93-114.53 1.2603-1.3957c11.858-13.132 18.873-20.511 19.499-20.511 0.4268 0 34.218 30.678 75.092 68.173l74.316 68.173-0.20338 51.13c-0.22401 56.317 0.0691 52.145-4.4962 63.984-4.1657 10.802-13.893 23.024-24.989 31.397-6.4039 4.8326-18.925 11.224-26.733 13.646-15.071 4.6743-20.913 5.0524-77.759 5.033-57.025-0.0195-62.564-0.3984-77.608-5.3098-23.84-7.7824-44.268-26.023-51.628-46.1-3.9151-10.68-3.7972-9.2987-4.0646-47.616l-0.2473-35.437-48.373 0.34573-0.35417 35.264c-0.4044 40.265-0.34236 39.762-6.4667 52.401-12.415 25.622-39.317 42.655-72.31 45.784-8.6403 0.81934-102.65 0.7744-111.25-0.0532z" fill="#c87137" stroke-width=".65913"/><circle cx="87.99" cy="155.22" r="45.48" fill="#fff"/><circle cx="74.148" cy="142.69" r="17.797"/><circle cx="536.86" cy="182.24" r="37.571" fill="#fff"/><circle cx="541.8" cy="191.14" r="20.763"/><text transform="scale(1.1946 .8371)" x="3.4506087" y="481.2847" fill="#00ffff" font-family="Impact" font-size="203.34px" letter-spacing="0px" stroke-width="2.3829px" word-spacing="0px" style="font-variant-caps:normal;font-variant-east-asian:normal;font-variant-ligatures:normal;font-variant-numeric:normal;line-height:125%" xml:space="preserve"><tspan x="3.4506087" y="481.2847" fill="#00ffff" stroke-width="2.3829px">AWFUL</tspan></text><path d="m321.7-165.7c-2.1146 0-4.1523 0.30225-6.181 0.62129 3.853 5.3664 6.181 11.902 6.181 19.01 0 18.071-14.653 32.721-32.724 32.721h-6.5421c-14.459 0-26.179 11.72-26.179 26.179 0 7.8614 3.5382 14.834 9.0273 19.632h-5.7536c-16.263 0-29.45 13.183-29.45 29.45 0 9.5752 4.6382 17.991 11.714 23.37-14.042 2.2414-24.804 14.307-24.804 28.983 0 16.263 13.188 29.45 29.45 29.45h150.52c16.263 0 29.45-13.188 29.45-29.45 0-14.676-10.762-26.741-24.804-28.983 7.0761-5.3786 11.714-13.795 11.714-23.37 0-16.267-13.185-29.45-29.448-29.45h-5.7562c5.4891-4.7978 9.0273-11.77 9.0273-19.632 0-14.459-11.718-26.179-26.176-26.179h-2.4055c1.4602-4.1107 2.4055-8.4732 2.4055-13.087 0-21.686-17.58-39.266-39.266-39.266zm4.5243 72.285c2.0588 0 4.1171 0.78693 5.6872 2.3577l54.538 54.535c3.1416 3.1416 3.1416 8.2381 0 11.38l-54.283 54.283c-3.1443 3.1416-8.2368 3.1416-11.377 0l-54.541-54.538c-3.1416-3.1416-3.1416-8.2354 0-11.38l37.397-37.392 14.162 14.162c-1.4518 3.4774-0.77128 7.6361 2.0604 10.466 0.92712 0.92983 1.9938 1.6219 3.1356 2.0896v34.296c-1.1419 0.46764-2.2112 1.1665-3.1356 2.0896-3.7384 3.737-3.7384 9.7945 0 13.538 3.7356 3.737 9.7973 3.737 13.536 0 3.7384-3.7424 3.7384-9.7999 0-13.538-0.75856-0.75855-1.6195-1.3594-2.5303-1.8108v-33.98l12.914 12.912c-1.426 3.4638-0.72966 7.5966 2.0816 10.411 3.7424 3.7397 9.7999 3.7397 13.541 0 3.7384-3.7411 3.7384-9.7973 0-13.536-2.6753-2.6794-6.5393-3.4283-9.8902-2.2728l-13.846-13.844c1.1569-3.3509 0.40657-7.2122-2.2701-9.8902-2.6604-2.6617-6.4878-3.4196-9.8265-2.2913l-14.367-14.364 11.324-11.327c1.5715-1.5708 3.631-2.3577 5.6898-2.3577z" fill="#fd5" stroke-width=".40902"/><ellipse cx="283.42" cy="-99.209" rx="16.314" ry="10.381" fill="#fff"/><text x="120.99176" y="516.17023" fill="#ffffff" font-family="Impact" font-size="85.333px" letter-spacing="0px" stroke-width="1px" word-spacing="0px" style="font-variant-caps:normal;font-variant-east-asian:normal;font-variant-ligatures:normal;font-variant-numeric:normal;line-height:125%" xml:space="preserve"><tspan x="120.99176" y="516.17023">GITPOSTING</tspan></text></svg>
